<?xml version="1.0" encoding="UTF-8" standalone="no"?>
<!-- Created with Inkscape (http://www.inkscape.org/) -->

<svg
   xmlns:dc="http://purl.org/dc/elements/1.1/"
   xmlns:cc="http://creativecommons.org/ns#"
   xmlns:rdf="http://www.w3.org/1999/02/22-rdf-syntax-ns#"
   xmlns:svg="http://www.w3.org/2000/svg"
   xmlns="http://www.w3.org/2000/svg"
   xmlns:sodipodi="http://sodipodi.sourceforge.net/DTD/sodipodi-0.dtd"
   xmlns:inkscape="http://www.inkscape.org/namespaces/inkscape"
   width="744.09448819"
   height="1052.3622047"
   id="svg3096"
   version="1.1"
   inkscape:version="0.48.3.1 r9886"
   sodipodi:docname="logo.svg">
  <defs
     id="defs3098">
    <filter
       inkscape:collect="always"
       id="filter4046"
       x="-0.13013317"
       width="1.2602663"
       y="-0.086322528"
       height="1.1726451">
      <feGaussianBlur
         inkscape:collect="always"
         stdDeviation="4.4541601"
         id="feGaussianBlur4048" />
    </filter>
    <filter
       inkscape:collect="always"
       id="filter4050"
       x="-0.27002021"
       width="1.5400404"
       y="-0.097297591"
       height="1.1945952">
      <feGaussianBlur
         inkscape:collect="always"
         stdDeviation="4.4541601"
         id="feGaussianBlur4052" />
    </filter>
    <filter
       inkscape:collect="always"
       id="filter4054"
       x="-0.079900187"
       width="1.1598004"
       y="-0.13239454"
       height="1.2647891">
      <feGaussianBlur
         inkscape:collect="always"
         stdDeviation="4.4541601"
         id="feGaussianBlur4056" />
    </filter>
    <filter
       inkscape:collect="always"
       id="filter4058">
      <feGaussianBlur
         inkscape:collect="always"
         stdDeviation="4.4541601"
         id="feGaussianBlur4060" />
    </filter>
    <filter
       inkscape:collect="always"
       id="filter4062"
       x="-0.16102708"
       width="1.3220542"
       y="-0.096201079"
       height="1.1924022">
      <feGaussianBlur
         inkscape:collect="always"
         stdDeviation="4.4541601"
         id="feGaussianBlur4064" />
    </filter>
    <filter
       inkscape:collect="always"
       id="filter4066"
       x="-0.53600673"
       width="2.0720135"
       y="-0.38890347"
       height="1.7778069">
      <feGaussianBlur
         inkscape:collect="always"
         stdDeviation="4.4541601"
         id="feGaussianBlur4068" />
    </filter>
  </defs>
  <sodipodi:namedview
     id="base"
     pagecolor="#ffffff"
     bordercolor="#666666"
     borderopacity="1.0"
     inkscape:pageopacity="0.0"
     inkscape:pageshadow="2"
     inkscape:zoom="0.9899495"
     inkscape:cx="353.73156"
     inkscape:cy="252.28214"
     inkscape:document-units="px"
     inkscape:current-layer="layer1"
     showgrid="false"
     inkscape:window-width="1366"
     inkscape:window-height="718"
     inkscape:window-x="0"
     inkscape:window-y="0"
     inkscape:window-maximized="1" />
  <metadata
     id="metadata3101">
    <rdf:RDF>
      <cc:Work
         rdf:about="">
        <dc:format>image/svg+xml</dc:format>
        <dc:type
           rdf:resource="http://purl.org/dc/dcmitype/StillImage" />
        <dc:title />
      </cc:Work>
    </rdf:RDF>
  </metadata>
  <g
     inkscape:label="Layer 1"
     inkscape:groupmode="layer"
     id="layer1">
    <g
       id="g3158">
      <g
         transform="translate(0,0.31402756)"
         id="g3150">
        <g
           id="g3860"
           transform="matrix(1.25,0,0,-1.25,248.67503,220.27736)">
          <path
             d="m 0,0 c -35.175,0 -62.012,-29.352 -62.012,-64.521 0,-35.177 26.837,-64.529 62.012,-64.529 3.513,0 6.942,0.299 10.269,0.86 -3.115,3.181 -4.949,8.168 -5.174,14.554 l 0,1.344 0,0.938 c -2.279,-0.266 -3.08,-0.266 -4.962,-0.266 -21.585,0 -40.625,21.72 -40.625,46.39 0,24.675 18.904,46.53 40.492,46.53 21.463,0 40.509,-21.855 40.509,-46.53 0,-17.43 -10.326,-34.992 -25.215,-42.904 1.206,-9.121 4.561,-13.678 10.329,-13.678 7.375,0 10.861,6.706 10.861,21.452 l 1.343,0 c 0.134,-2.68 0.134,-3.618 0.134,-5.229 0,-4.123 -0.443,-7.861 -1.282,-11.146 15.534,11.808 25.348,30.943 25.348,52.214 C 62.027,-29.352 35.186,0 0,0"
             style="fill:#b1211c;fill-opacity:1;fill-rule:nonzero;stroke:none"
             id="path3862"
             inkscape:connector-curvature="0" />
        </g>
        <g
           id="g3864"
           transform="matrix(1.25,0,0,-1.25,266.94903,349.41186)">
          <path
             d="m 0,0 0.27,-2.012 c 8.051,6.84 11.671,19.172 11.671,40.225 -0.132,31.112 -8.048,44.649 -26.56,44.649 -18.504,0 -26.549,-13.673 -26.549,-44.785 0,-21.985 4.158,-35.13 13.008,-41.161 2.009,-1.344 3.618,-2.012 7.509,-2.951 -4.427,3.486 -6.037,6.703 -6.037,11.67 0,6.834 4.828,11.661 11.801,11.661 C -6.303,17.296 -1.612,11.797 0,0"
             style="fill:#b1211c;fill-opacity:1;fill-rule:nonzero;stroke:none"
             id="path3866"
             inkscape:connector-curvature="0" />
        </g>
        <g
           id="g3868"
           transform="matrix(1.25,0,0,-1.25,235.77166,342.36849)">
          <path
             d="m 0,0 c 0,-6.035 4.02,-11.402 9.247,-12.205 l 0.54,0 0.805,0 c 1.745,0 2.547,0.135 4.694,0.404 l 0.132,0.805 0.134,1.068 c 0.134,0.807 0.27,2.012 0.27,3.356 0.133,1.742 0.133,3.08 0.133,4.023 0,9.117 -1.877,12.334 -7.377,12.334 C 3.62,9.785 0,5.625 0,0"
             style="fill:#b1211c;fill-opacity:1;fill-rule:nonzero;stroke:none"
             id="path3870"
             inkscape:connector-curvature="0" />
        </g>
      </g>
      <g
         style="fill:#999999"
         transform="matrix(1.318301,0,0,1.5576475,-112.43881,-842.63789)"
         id="g3109">
        <g
           style="fill:#999999"
           id="g3896"
           transform="matrix(4.1775543,0,0,-4.1775543,396.0346,695.74799)">
          <path
             d="m 0,0 0,-6.591 -0.387,0 c -0.662,3.996 -2.948,6.353 -6.085,6.353 -2.208,0 -3.876,-1.312 -3.876,-2.978 0,-1.709 0.889,-2.329 5.501,-3.837 2.598,-0.892 3.222,-1.125 4.112,-1.667 1.276,-0.817 2.088,-2.366 2.088,-4.033 0,-3.37 -3.136,-6.007 -7.127,-6.007 -1.589,0 -3.335,0.509 -4.574,1.321 l -1.318,0.891 c -0.116,0.079 -0.233,0.117 -0.351,0.117 -0.269,0 -0.459,-0.234 -0.621,-0.737 l -0.187,-0.542 -0.313,-0.929 -0.425,0 0,8.098 0.425,0 c 1.472,-5.158 3.914,-7.71 7.401,-7.71 2.481,0 4.454,1.703 4.454,3.799 0,2.049 -0.773,2.67 -5.38,4.182 -2.408,0.775 -3.105,1.083 -4.07,1.625 -1.438,0.854 -2.247,2.133 -2.247,3.603 0,2.988 2.825,5.313 6.508,5.313 1.547,0 2.905,-0.388 4.183,-1.125 0.664,-0.388 0.813,-0.467 1.006,-0.467 0.352,0 0.505,0.234 0.896,1.321 L 0,0 z"
             style="fill:#999999;fill-opacity:1;fill-rule:nonzero;stroke:none"
             id="path3898"
             inkscape:connector-curvature="0" />
        </g>
        <g
           style="fill:#999999"
           id="g3900"
           transform="matrix(2.7584052,0,0,-2.7584052,429.54684,709.14743)">
          <path
             d="m 0,0 c 0,-1.12 -0.928,-2.012 -2.051,-2.012 -1.162,0 -2.093,0.929 -2.093,2.012 0,1.129 0.931,2.017 2.093,2.017 C -0.891,2.017 0,1.129 0,0 m -0.5,-5.111 0,-14.961 c 0,-2.32 0.62,-2.824 3.759,-3.1 l 0,-0.382 -10.887,0 0,0.382 c 3.136,0.276 3.757,0.78 3.757,3.1 l 0,10.969 c 0,2.713 -0.233,2.904 -3.757,3.142 l 0,0.42 0.152,0 c 3.564,0.159 5.385,0.275 6.782,0.388 l 0.194,0.042 z"
             style="fill:#999999;fill-opacity:1;fill-rule:nonzero;stroke:none"
             id="path3902"
             inkscape:connector-curvature="0" />
        </g>
        <g
           style="fill:#999999"
           id="g3972"
           transform="matrix(2.9043966,0,0,-2.9043966,460.62725,738.89148)">
          <path
             d="M 0.37522238,-0.44283197 C 1.0409939,1.6122918 1.456258,2.3946456 2.4284192,3.4785716 c 1.3797174,1.4924457 3.0186136,2.2401138 4.9648631,2.2401138 1.8682067,0 3.5437157,-0.8189663 4.2547717,-2.1322029 0.525101,-0.9711978 0.673479,-1.565671 0.933621,-3.88286401 0.558824,1.97997161 0.931695,2.76617931 1.90482,3.84721481 1.343104,1.5280949 2.872163,2.1678521 4.964863,2.1678521 1.980935,0 3.547569,-0.5992906 4.407002,-1.7188658 0.823784,-1.044423 0.969271,-1.7179024 0.969271,-4.36749936 l 0,-8.40066774 c 0,-2.2391505 0.558824,-2.7266765 3.621758,-2.9897085 l 0,-0.370944 -10.52998,0 0,0.370944 c 3.062934,0.304462 3.625612,0.750558 3.625612,2.9897085 l 0,8.51339605 c 0,4.21912195 -0.412374,4.96100905 -2.767143,4.96100905 -2.612021,0 -4.664254,-1.6408231 -5.448535,-4.32606926 C 12.805205,-1.4516058 12.620215,-3.0567798 12.620215,-6.3798562 l 0,-2.3884913 c 0,-2.2391505 0.59929,-2.7266765 3.620794,-2.9897085 l 0,-0.370944 -10.4885499,0 0,0.370944 c 3.0186136,0.263032 3.6188677,0.750558 3.6188677,2.9897085 l 0,7.87363881 0,2.05705079 c 0,2.5012195 -0.8603963,3.5437155 -2.8018283,3.5437155 -2.2420408,0 -4.2181585,-1.5290583 -5.2259688,-4.02931439 C 0.59778861,-1.3032284 0.37522238,-2.8717898 0.37522238,-6.6419255 l 0,-2.126422 c 0,-2.2391505 0.59447323,-2.7266765 3.61983132,-2.9897085 l 0,-0.370944 -10.4885502,0 0,0.370944 c 3.0195771,0.263032 3.6159773,0.750558 3.6159773,2.9897085 l 0,10.5646659 c 0,1.9790081 -0.147414,2.3923452 -1.0829626,2.6891001 -0.4807814,0.1493409 -1.1157212,0.2206391 -2.5330147,0.3333674 l 0,0.4143007 0.4846354,0 c 0.4460957,0 1.5309853,0.075152 3.2450337,0.1483774 1.90289239,0.1117648 2.12738549,0.1117648 3.13904978,0.2591788 l 0,-6.08347477 z"
             style="fill:#999999;fill-opacity:1;fill-rule:nonzero;stroke:none"
             id="path3974"
             inkscape:connector-curvature="0" />
        </g>
      </g>
    </g>
    <path
       inkscape:connector-curvature="0"
       id="path3862-9"
       style="opacity:0.5;fill:#b1211c;fill-opacity:1;fill-rule:nonzero;stroke:none"
       d="m 217.65581,528.84879 c -43.96875,0 -77.515,36.69 -77.515,80.65125 0,43.97125 33.54625,80.66125 77.515,80.66125 4.39125,0 8.6775,-0.37375 12.83625,-1.075 -3.89375,-3.97625 -6.18625,-10.21 -6.4675,-18.1925 l 0,-1.68 0,-1.1725 c -2.84875,0.3325 -3.85,0.3325 -6.2025,0.3325 -26.98125,0 -50.78125,-27.15 -50.78125,-57.9875 0,-30.84375 23.63,-58.1625 50.615,-58.1625 26.82875,0 50.63625,27.31875 50.63625,58.1625 0,21.7875 -12.9075,43.74 -31.51875,53.63 1.5075,11.40125 5.70125,17.0975 12.91125,17.0975 9.21875,0 13.57625,-8.3825 13.57625,-26.815 l 1.67875,0 c 0.1675,3.35 0.1675,4.5225 0.1675,6.53625 0,5.15375 -0.55375,9.82625 -1.6025,13.9325 19.4175,-14.76 31.685,-38.67875 31.685,-65.2675 0,-43.96125 -33.55125,-80.65125 -77.53375,-80.65125" />
    <path
       inkscape:connector-curvature="0"
       id="path3866-5"
       style="opacity:0.5;fill:#b1211c;fill-opacity:1;fill-rule:nonzero;stroke:none"
       d="m 235.92981,657.98329 0.3375,2.515 c 10.06375,-8.55 14.58875,-23.965 14.58875,-50.28125 -0.165,-38.89 -10.06,-55.81125 -33.2,-55.81125 -23.13,0 -33.18625,17.09125 -33.18625,55.98125 0,27.48125 5.1975,43.9125 16.26,51.45125 2.51125,1.68 4.5225,2.515 9.38625,3.68875 -5.53375,-4.3575 -7.54625,-8.37875 -7.54625,-14.5875 0,-8.5425 6.035,-14.57625 14.75125,-14.57625 10.73,0 16.59375,6.87375 18.60875,21.62" />
    <path
       inkscape:connector-curvature="0"
       id="path3870-0"
       style="opacity:0.5;fill:#b1211c;fill-opacity:1;fill-rule:nonzero;stroke:none"
       d="m 204.75244,650.93992 c 0,7.54375 5.025,14.2525 11.55875,15.25625 l 0.675,0 1.00625,0 c 2.18125,0 3.18375,-0.16875 5.8675,-0.505 l 0.165,-1.00625 0.1675,-1.335 c 0.1675,-1.00875 0.3375,-2.515 0.3375,-4.195 0.16625,-2.1775 0.16625,-3.85 0.16625,-5.02875 0,-11.39625 -2.34625,-15.4175 -9.22125,-15.4175 -6.1975,0 -10.7225,5.2 -10.7225,12.23125" />
    <path
       inkscape:connector-curvature="0"
       id="path3898-9"
       style="opacity:0.5;fill:#999999;fill-opacity:1;fill-rule:nonzero;stroke:none"
       d="m 378.63478,549.34963 0,42.88867 -2.13132,0 c -3.64581,-26.0026 -16.23544,-41.33997 -33.51176,-41.33997 -12.16006,0 -21.34619,8.53739 -21.34619,19.37832 0,11.12073 4.89597,15.15517 30.29551,24.96796 14.3079,5.80438 17.74444,7.32055 22.64591,10.84743 7.02729,5.31635 11.49919,15.39593 11.49919,26.24336 0,21.92912 -17.27081,39.0885 -39.25034,39.0885 -8.75106,0 -18.36676,-3.31215 -25.19027,-8.59596 l -7.25859,-5.79788 c -0.63884,-0.51406 -1.28319,-0.76133 -1.93305,-0.76133 -1.48146,0 -2.52784,1.52267 -3.42002,4.79577 l -1.02986,3.52688 -1.72378,6.04515 -2.34059,0 0,-52.69496 2.34059,0 c 8.10671,33.56392 21.55547,50.17018 40.75934,50.17018 13.66355,0 24.5294,-11.08169 24.5294,-24.72069 0,-13.33316 -4.25713,-17.37411 -29.62914,-27.21293 -13.26151,-5.04304 -17.10008,-7.04725 -22.4146,-10.57413 -7.91946,-5.55711 -12.37485,-13.87976 -12.37485,-23.44528 0,-19.44339 15.55805,-34.57253 35.84134,-34.57253 8.51976,0 15.99863,2.52478 23.03693,7.32055 3.65683,2.52478 4.47741,3.03884 5.54032,3.03884 1.93856,0 2.78117,-1.52267 4.93451,-8.59595 l 2.13132,0 z" />
    <path
       inkscape:connector-curvature="0"
       id="path3902-5"
       style="opacity:0.5;fill:#999999;fill-opacity:1;fill-rule:nonzero;stroke:none"
       d="m 422.814,570.22123 c 0,4.81222 -3.37459,8.64481 -7.45827,8.64481 -4.22551,0 -7.61101,-3.99157 -7.61101,-8.64481 0,-4.85089 3.3855,-8.66629 7.61101,-8.66629 4.21823,0 7.45827,3.8154 7.45827,8.66629 m -1.8182,21.96004 0,64.28178 c 0,9.96816 2.25457,12.13366 13.66925,13.31953 l 0,1.64131 -39.58957,0 0,-1.64131 c 11.40377,-1.18587 13.66198,-3.35137 13.66198,-13.31953 l 0,-47.12966 c 0,-11.65674 -0.84728,-12.47739 -13.66198,-13.49999 l 0,-1.80458 0.55273,0 c 12.96016,-0.68317 19.58206,-1.18157 24.66212,-1.66709 l 0.70547,-0.18046 z" />
    <path
       inkscape:connector-curvature="0"
       id="path3974-1"
       style="opacity:0.5;fill:#999999;fill-opacity:1;fill-rule:nonzero;stroke:none"
       d="m 465.22401,618.55536 c 2.54915,-9.29743 4.13914,-12.83682 7.86142,-17.74053 5.28276,-6.75186 11.55787,-10.13433 19.00981,-10.13433 7.15312,0 13.56842,3.70502 16.29096,9.64614 2.01054,4.39372 2.57866,7.08314 3.57471,17.56618 2.13967,-8.95745 3.56734,-12.51427 7.29331,-17.4049 5.14257,-6.91314 10.99714,-9.80742 19.00981,-9.80742 7.58474,0 13.58318,2.7112 16.87383,7.77619 3.15416,4.725 3.71121,7.77184 3.71121,19.75868 l 0,38.00484 c 0,10.12998 2.13967,12.33556 13.86724,13.52552 l 0,1.67816 -40.31791,0 0,-1.67816 c 11.72757,-1.37739 13.88199,-3.39554 13.88199,-13.52552 l 0,-38.51482 c 0,-19.08742 -1.57893,-22.44374 -10.59503,-22.44374 -10.00108,0 -17.85881,7.42313 -20.86172,19.57125 -2.00686,8.28618 -2.71516,15.54803 -2.71516,30.58172 l 0,10.80559 c 0,10.12998 2.2946,12.33556 13.86354,13.52552 l 0,1.67816 -40.15928,0 0,-1.67816 c 11.55788,-1.18996 13.85617,-3.39554 13.85617,-13.52552 l 0,-35.62054 0,-9.30616 c 0,-11.31558 -3.29434,-16.03186 -10.72783,-16.03186 -8.58448,0 -16.15078,6.9175 -20.00955,18.22873 -2.85535,8.95744 -3.70752,16.05365 -3.70752,33.10984 l 0,9.61999 c 0,10.12998 2.27616,12.33556 13.85986,13.52552 l 0,1.67816 -40.15929,0 0,-1.67816 c 11.56157,-1.18996 13.84511,-3.39554 13.84511,-13.52552 l 0,-47.79482 c 0,-8.95309 -0.56443,-10.82303 -4.14653,-12.16556 -1.84084,-0.67562 -4.27195,-0.99818 -9.69858,-1.50816 l 0,-1.87431 1.85561,0 c 1.70804,0 5.86194,-0.33999 12.42481,-0.67126 7.28592,-0.50563 8.14548,-0.50563 12.01901,-1.17254 l 0,27.5218 z" />
    <g
       id="g4070">
      <path
         d="m 271.22724,825.27736 c -43.96875,0 -77.515,36.69 -77.515,80.65125 0,43.97125 33.54625,80.66125 77.515,80.66125 4.39125,0 8.6775,-0.37375 12.83625,-1.075 -3.89375,-3.97625 -6.18625,-10.21 -6.4675,-18.1925 l 0,-1.68 0,-1.1725 c -2.84875,0.3325 -3.85,0.3325 -6.2025,0.3325 -26.98125,0 -50.78125,-27.15 -50.78125,-57.9875 0,-30.84375 23.63,-58.1625 50.615,-58.1625 26.82875,0 50.63625,27.31875 50.63625,58.1625 0,21.7875 -12.9075,43.74 -31.51875,53.63 1.5075,11.40125 5.70125,17.0975 12.91125,17.0975 9.21875,0 13.57625,-8.3825 13.57625,-26.815 l 1.67875,0 c 0.1675,3.35 0.1675,4.5225 0.1675,6.53625 0,5.15375 -0.55375,9.82625 -1.6025,13.9325 19.4175,-14.76 31.685,-38.67875 31.685,-65.2675 0,-43.96125 -33.55125,-80.65125 -77.53375,-80.65125"
         style="fill:#b1211c;fill-opacity:1;fill-rule:nonzero;stroke:none;filter:url(#filter4058);opacity:0.6"
         id="path3862-3"
         inkscape:connector-curvature="0" />
      <path
         d="m 289.50124,954.41186 0.3375,2.515 c 10.06375,-8.55 14.58875,-23.965 14.58875,-50.28125 -0.165,-38.89 -10.06,-55.81125 -33.2,-55.81125 -23.13,0 -33.18625,17.09125 -33.18625,55.98125 0,27.48125 5.1975,43.9125 16.26,51.45125 2.51125,1.68 4.5225,2.515 9.38625,3.68875 -5.53375,-4.3575 -7.54625,-8.37875 -7.54625,-14.5875 0,-8.5425 6.035,-14.57625 14.75125,-14.57625 10.73,0 16.59375,6.87375 18.60875,21.62"
         style="fill:#b1211c;fill-opacity:1;fill-rule:nonzero;stroke:none;filter:url(#filter4062);opacity:0.6"
         id="path3866-3"
         inkscape:connector-curvature="0" />
      <path
         d="m 258.32387,947.36849 c 0,7.54375 5.025,14.2525 11.55875,15.25625 l 0.675,0 1.00625,0 c 2.18125,0 3.18375,-0.16875 5.8675,-0.505 l 0.165,-1.00625 0.1675,-1.335 c 0.1675,-1.00875 0.3375,-2.515 0.3375,-4.195 0.16625,-2.1775 0.16625,-3.85 0.16625,-5.02875 0,-11.39625 -2.34625,-15.4175 -9.22125,-15.4175 -6.1975,0 -10.7225,5.2 -10.7225,12.23125"
         style="fill:#b1211c;fill-opacity:1;fill-rule:nonzero;stroke:none;filter:url(#filter4066);opacity:0.6"
         id="path3870-6"
         inkscape:connector-curvature="0" />
      <path
         d="m 432.20621,845.7782 0,42.88867 -2.13132,0 c -3.64581,-26.0026 -16.23544,-41.33997 -33.51176,-41.33997 -12.16006,0 -21.34619,8.53739 -21.34619,19.37832 0,11.12073 4.89597,15.15517 30.29551,24.96796 14.3079,5.80438 17.74444,7.32055 22.64591,10.84743 7.02729,5.31635 11.49919,15.39593 11.49919,26.24336 0,21.92912 -17.27081,39.0885 -39.25034,39.0885 -8.75106,0 -18.36676,-3.31215 -25.19027,-8.59596 l -7.25859,-5.79788 c -0.63884,-0.51406 -1.28319,-0.76133 -1.93305,-0.76133 -1.48146,0 -2.52784,1.52267 -3.42002,4.79577 l -1.02986,3.52688 -1.72378,6.04515 -2.34059,0 0,-52.69496 2.34059,0 c 8.10671,33.56392 21.55547,50.17018 40.75934,50.17018 13.66355,0 24.5294,-11.08169 24.5294,-24.72069 0,-13.33316 -4.25713,-17.37411 -29.62914,-27.21293 -13.26151,-5.04304 -17.10008,-7.04725 -22.4146,-10.57413 -7.91946,-5.55711 -12.37485,-13.87976 -12.37485,-23.44528 0,-19.44339 15.55805,-34.57253 35.84134,-34.57253 8.51976,0 15.99863,2.52478 23.03693,7.32055 3.65683,2.52478 4.47741,3.03884 5.54032,3.03884 1.93856,0 2.78117,-1.52267 4.93451,-8.59595 l 2.13132,0 z"
         style="fill:#999999;fill-opacity:1;fill-rule:nonzero;stroke:none;filter:url(#filter4046);opacity:0.6"
         id="path3898-2"
         inkscape:connector-curvature="0" />
      <path
         d="m 476.38543,866.6498 c 0,4.81222 -3.37459,8.64481 -7.45827,8.64481 -4.22551,0 -7.61101,-3.99157 -7.61101,-8.64481 0,-4.85089 3.3855,-8.66629 7.61101,-8.66629 4.21823,0 7.45827,3.8154 7.45827,8.66629 m -1.8182,21.96004 0,64.28178 c 0,9.96816 2.25457,12.13366 13.66925,13.31953 l 0,1.64131 -39.58957,0 0,-1.64131 c 11.40377,-1.18587 13.66198,-3.35137 13.66198,-13.31953 l 0,-47.12966 c 0,-11.65674 -0.84728,-12.47739 -13.66198,-13.49999 l 0,-1.80458 0.55273,0 c 12.96016,-0.68317 19.58206,-1.18157 24.66212,-1.66709 l 0.70547,-0.18046 z"
         style="fill:#999999;fill-opacity:1;fill-rule:nonzero;stroke:none;filter:url(#filter4050);opacity:0.6"
         id="path3902-54"
         inkscape:connector-curvature="0" />
      <path
         d="m 518.79545,914.98393 c 2.54915,-9.29743 4.13914,-12.83682 7.86142,-17.74053 5.28276,-6.75186 11.55787,-10.13433 19.00981,-10.13433 7.15312,0 13.56842,3.70502 16.29096,9.64614 2.01054,4.39372 2.57866,7.08314 3.57471,17.56618 2.13967,-8.95745 3.56734,-12.51427 7.29331,-17.4049 5.14257,-6.91314 10.99714,-9.80742 19.00981,-9.80742 7.58474,0 13.58318,2.7112 16.87383,7.77619 3.15416,4.725 3.71121,7.77184 3.71121,19.75868 l 0,38.00484 c 0,10.12998 2.13967,12.33556 13.86724,13.52552 l 0,1.67816 -40.31791,0 0,-1.67816 c 11.72757,-1.37739 13.88199,-3.39554 13.88199,-13.52552 l 0,-38.51482 c 0,-19.08742 -1.57893,-22.44374 -10.59503,-22.44374 -10.00108,0 -17.85881,7.42313 -20.86172,19.57125 -2.00686,8.28618 -2.71516,15.54803 -2.71516,30.58172 l 0,10.80559 c 0,10.12998 2.2946,12.33556 13.86354,13.52552 l 0,1.67816 -40.15928,0 0,-1.67816 c 11.55788,-1.18996 13.85617,-3.39554 13.85617,-13.52552 l 0,-35.62054 0,-9.30616 c 0,-11.31558 -3.29434,-16.03186 -10.72783,-16.03186 -8.58448,0 -16.15078,6.9175 -20.00955,18.22873 -2.85535,8.95744 -3.70752,16.05365 -3.70752,33.10984 l 0,9.61999 c 0,10.12998 2.27616,12.33556 13.85986,13.52552 l 0,1.67816 -40.15929,0 0,-1.67816 c 11.56157,-1.18996 13.84511,-3.39554 13.84511,-13.52552 l 0,-47.79482 c 0,-8.95309 -0.56443,-10.82303 -4.14653,-12.16556 -1.84084,-0.67562 -4.27195,-0.99818 -9.69858,-1.50816 l 0,-1.87431 1.85561,0 c 1.70804,0 5.86194,-0.33999 12.42481,-0.67126 7.28592,-0.50563 8.14548,-0.50563 12.01901,-1.17254 l 0,27.5218 z"
         style="fill:#999999;fill-opacity:1;fill-rule:nonzero;stroke:none;filter:url(#filter4054);opacity:0.6"
         id="path3974-6"
         inkscape:connector-curvature="0" />
    </g>
  </g>
</svg>
